# xmcd
#
# Track frame offsets:
#	150
#	32389
#	59652
#	94301
#	131017
#	163783
#	195679
#	232356
#	262630
#	277985
#
# Disc length: 4155 seconds
#
# Revision: 1
# Processed by: cddbd v1.5.1PL0 Copyright (c) Steve Scherf et al.
# Submitted via: Bouchi 2005-08
#
DISCID=8c10390a
DTITLE=Jazzanova - The Remixes 1997-2000 [CD1]
DYEAR=2000
DGENRE=Jazz
TTITLE0=4 hero - We Who Are Not As Others (Jazzanova Mix)
TTITLE1=Marschmellows - Soulpower (Jazzanova's Straight Dub Mix)
TTITLE2=Men From The Nile - Watch Them Come!!! (Jazzanova Remix)
TTITLE3=Trüby Trio - Carajillo (Jazzanova's "Chant For Leo" Mix)
TTITLE4=Incognito - Get Into My Groove (Jazzanova Re-Groove Mix)
TTITLE5=Karma - High Priestess (Jazzanova Mix)
TTITLE6=Har-You Percussion Group - Welcome To The Party (Jazzanova Mix)
TTITLE7=United Future Organization - Friends...We'll Be (Jazzanova Mix)
TTITLE8=Azymuth - Amazon Adventure (Jazzanova Mix)
TTITLE9=Soul Bossa Trio - Words Of Love (Re-Loved By Jazzanova)
EXTD=YEAR: 2000
EXTT0=
EXTT1=
EXTT2=
EXTT3=
EXTT4=
EXTT5=
EXTT6=
EXTT7=
EXTT8=
EXTT9=
PLAYORDER=
